<?xml version="1.0" encoding="UTF-8"?>
<svg xmlns="http://www.w3.org/2000/svg" viewBox="0 0 512 512">
  <defs>
    <linearGradient id="g1" x1="0" x2="1" y1="0" y2="1">
      <stop offset="0" stop-color="#06b6a4"/>
      <stop offset="1" stop-color="#0ea5a4"/>
    </linearGradient>
  </defs>
  <circle cx="256" cy="256" r="256" fill="#0f1724"/>
  <!-- window/terminal shape -->
  <rect x="96" y="144" width="320" height="208" rx="20" ry="20" fill="#042f2b"/>
  <rect x="112" y="160" width="296" height="176" rx="14" ry="14" fill="url(#g1)" opacity="0.08"/>
  <!-- screen outline -->
  <rect x="124" y="172" width="264" height="152" rx="10" ry="10" fill="#042f2b" stroke="#0ea5a4" stroke-opacity="0.06"/>
  <!-- gear (simplified) -->
  <g transform="translate(360,300) scale(0.6)" fill="#06b6a4">
    <path d="M-8 40a32 32 0 1 0 0-64 32 32 0 0 0 0 64z"/>
    <path d="M48-4l8-18-18-8-8 18a66 66 0 0 0-12-4l-4-20H6l-4 20a66 66 0 0 0-12 4L-18-30-36-22l8 18a66 66 0 0 0-4 12l-20 4v24l20 4a66 66 0 0 0 4 12l-8 18 18 8 8-18a66 66 0 0 0 12 4l4 20h24l4-20a66 66 0 0 0 12-4l8 18 18-8-8-18a66 66 0 0 0 4-12l20-4v-24l-20-4a66 66 0 0 0-4-12z"/>
  </g>
  <!-- text -->
  <g fill="#06b6a4" font-family="Arial, Helvetica, sans-serif" font-weight="700">
    <text x="140" y="238" font-size="36">API</text>
    <text x="140" y="286" font-size="36">HUB</text>
  </g>
</svg>